<svg width="14" height="9" viewBox="0 0 14 9" fill="none" xmlns="http://www.w3.org/2000/svg">
<path d="M13.4029 0.397927C13.2935 0.280609 13.1637 0.187532 13.0207 0.124027C12.8778 0.0605208 12.7245 0.027832 12.5698 0.027832C12.415 0.027832 12.2618 0.0605208 12.1188 0.124027C11.9759 0.187533 11.846 0.280609 11.7367 0.397927L7.15175 5.30816L2.56681 0.397927C2.34586 0.161303 2.04619 0.028368 1.73372 0.028368C1.42125 0.028368 1.12158 0.161303 0.900631 0.397927C0.679683 0.634552 0.555556 0.955484 0.555556 1.29012C0.555556 1.62476 0.679683 1.94569 0.900631 2.18232L6.32457 7.99107C6.43389 8.10839 6.56375 8.20147 6.7067 8.26497C6.84965 8.32848 7.00289 8.36117 7.15766 8.36117C7.31242 8.36117 7.46566 8.32848 7.60862 8.26497C7.75157 8.20147 7.88142 8.10839 7.99075 7.99107L13.4147 2.18232C13.8637 1.70142 13.8637 0.891482 13.4029 0.397927Z" fill="black"/>
</svg>
